<?xml version="1.0"?><svg fill="#000000" xmlns="http://www.w3.org/2000/svg"  viewBox="0 0 30 30" width="30px" height="30px">    <path d="M15,3C8.373,3,3,8.373,3,15c0,6.627,5.373,12,12,12s12-5.373,12-12C27,8.373,21.627,3,15,3z M21.464,12.535 c0.006,0.133,0.009,0.265,0.009,0.397c0,4.068-3.095,8.756-8.756,8.756c-1.739,0-3.356-0.509-4.717-1.383 c0.241,0.029,0.486,0.042,0.735,0.042c1.443,0,2.769-0.491,3.821-1.318c-1.347-0.025-2.484-0.915-2.875-2.137 c0.188,0.036,0.381,0.055,0.579,0.055c0.281,0,0.554-0.038,0.811-0.108c-1.408-0.282-2.469-1.526-2.469-3.017 c0-0.013,0-0.026,0-0.039c0.415,0.231,0.889,0.369,1.394,0.385c-0.825-0.551-1.369-1.494-1.369-2.561 c0-0.565,0.151-1.094,0.416-1.547c1.518,1.862,3.786,3.088,6.343,3.216c-0.052-0.225-0.079-0.46-0.079-0.701 c0-1.699,1.378-3.078,3.077-3.078c0.885,0,1.685,0.374,2.246,0.972c0.701-0.139,1.36-0.394,1.955-0.747 c-0.23,0.719-0.718,1.321-1.354,1.703c0.622-0.074,1.215-0.239,1.768-0.484C22.588,11.559,22.067,12.1,21.464,12.535z"/></svg>